<?xml version="1.0" encoding="UTF-8" standalone="no"?>
<svg
   xmlns:dc="http://purl.org/dc/elements/1.1/"
   xmlns:cc="http://creativecommons.org/ns#"
   xmlns:rdf="http://www.w3.org/1999/02/22-rdf-syntax-ns#"
   xmlns:svg="http://www.w3.org/2000/svg"
   xmlns="http://www.w3.org/2000/svg"
   viewBox="0 0 793.70135 1122.52"
   height="1122.52"
   width="793.70135"
   xml:space="preserve"
   id="svg2"
   version="1.1"><metadata
     id="metadata8"><rdf:RDF><cc:Work
         rdf:about=""><dc:format>image/svg+xml</dc:format><dc:type
           rdf:resource="http://purl.org/dc/dcmitype/StillImage" /></cc:Work></rdf:RDF></metadata><defs
     id="defs6"><clipPath
       id="clipPath18"
       clipPathUnits="userSpaceOnUse"><path
         id="path16"
         d="M 0,841.89 H 595.276 V 0 H 0 Z" /></clipPath></defs><g
     transform="matrix(1.3333333,0,0,-1.3333333,0,1122.52)"
     id="g10"><g
       id="g12"><g
         clip-path="url(#clipPath18)"
         id="g14"><g
           transform="translate(221.1484,612.1693)"
           id="g20"><path
             id="path22"
             style="fill:#2b2b2a;fill-opacity:1;fill-rule:nonzero;stroke:none"
             d="M 0,0 C -1.73,0 -2.819,-0.172 -2.852,-0.178 L -3.25,-0.223 C -3.733,-0.25 -51.765,-2.952 -71.243,-6.9 -85.05,-9.699 -85.591,-36.474 -84.634,-46.554 l 0.013,-0.191 c 2.402,-59.271 9.57,-215.814 13.835,-228.217 3.372,-9.808 12.352,-14.718 17.405,-16.772 2.236,-0.91 4.587,-1.332 6.996,-1.276 25.247,0.66 55.502,2.23 64.7,4.655 12.392,3.265 11.573,13.88 11.439,15.08 l -0.024,0.412 v 60.753 c -0.915,8.512 0.474,14.859 4.126,18.867 3.651,4.007 8.109,4.044 8.605,4.035 l 40.927,0.001 c 13.49,-0.083 18.717,-11.413 19.119,-21.988 l -1.761,-0.12 1.781,-0.043 c 0.001,-0.147 0.08,-14.988 -1.081,-42.776 -0.64,-15.337 5.728,-19.714 7.479,-20.623 h 79.092 c 13.944,0 17.877,10.003 18.546,12.095 l -0.473,242.097 c 1.694,33.14 -10.772,29.371 -12.769,30.062 L 142.175,9.479 c -33.418,0.497 -37.167,-10.063 -37.509,-13.315 -0.318,-3.025 -1.333,-49.579 -2.074,-83.57 -0.503,-23.104 -0.939,-43.057 -1.145,-49.657 -0.286,-9.162 -2.121,-15.303 -5.454,-18.252 -1.916,-1.695 -3.723,-1.875 -4.569,-1.857 H 53.185 c -14.642,0 -20.289,8.896 -21.23,13.599 l -0.062,0.491 -5.938,106.448 C 25.976,-21.805 22.44,-11.279 15.445,-5.349 10.024,-0.753 3.614,0 0,0 m -46.849,-300.016 c -3.152,-10e-4 -6.233,0.604 -9.169,1.797 -6.153,2.502 -17.114,8.554 -21.387,20.982 -5.452,15.852 -13.801,220.114 -14.206,230.117 -0.258,2.814 -3.474,42.529 18.977,47.08 19.569,3.967 65.108,6.587 68.82,6.796 1.875,0.278 13.783,1.644 23.695,-6.688 8.682,-7.299 13.08,-19.616 13.074,-36.611 l 5.909,-105.83 c 0.375,-1.336 2.79,-7.799 14.321,-7.799 h 38.039 c 0.475,0.351 2.894,2.664 3.227,13.328 0.205,6.567 0.64,26.504 1.143,49.59 1.031,47.332 1.787,81.074 2.111,84.15 0.795,7.553 7.666,20.146 44.522,19.583 l 51.182,0.018 c 6.891,-2.819 20.156,-1.226 19.675,-36.753 l 0.006,-0.196 0.475,-243.123 -0.102,-0.415 c -1.51,-6.146 -8.772,-17.767 -25.446,-17.767 h -80.379 l -0.532,0.174 c -0.556,0.183 -13.615,4.73 -12.654,27.741 1.061,25.387 1.081,39.858 1.076,42.125 -0.007,0.084 -0.013,0.169 -0.016,0.256 -0.174,4.565 -1.703,15.19 -12.146,15.254 H 42.398 c -0.064,-0.002 -1.917,-0.077 -3.469,-1.863 -1.503,-1.731 -3.108,-5.472 -2.221,-13.463 l 0.022,-0.387 v -60.741 c 0.675,-6.215 -1.93,-18.589 -16.63,-22.464 -11.972,-3.154 -50.355,-4.466 -66.302,-4.883 -0.215,-0.006 -0.431,-0.008 -0.647,-0.008" /></g><g
           transform="translate(289.0063,248.0189)"
           id="g24"><path
             id="path26"
             style="fill:#2b2b2a;fill-opacity:1;fill-rule:nonzero;stroke:none"
             d="m 0,0 c -0.164,0 -0.328,0.004 -0.495,0.012 h -0.929 c -9.537,-0.465 -14.528,11.779 -16.521,18.349 -0.17,0.558 -0.693,0.924 -1.276,0.918 -9.675,-0.095 -16.365,2.19 -19.932,6.8 -2.74,3.542 -3.346,10.103 -3.046,13.817 0.081,0.998 1.215,1.531 2.045,0.969 l 5.759,-3.894 c 0.515,-0.348 0.711,-1.004 0.48,-1.581 -0.488,-1.212 -1.028,-3.354 0.34,-5.08 2.452,-3.096 8.695,-4.48 17.584,-3.905 0.143,0.01 0.287,0.042 0.42,0.096 l 0.913,-0.001 c 0.848,0.343 2.032,0.468 2.057,-0.446 l 0.484,-2.256 c 0.002,-0.087 0.011,-0.169 0.03,-0.254 1.186,-5.322 5.31,-16.543 10.204,-16.543 0.059,0 0.117,0.002 0.177,0.005 l 0.194,0.006 1.299,-0.006 c 0.06,-0.003 0.12,-0.005 0.179,-0.005 4.9,0 9.002,11.157 10.192,16.499 0.026,0.115 0.034,0.226 0.029,0.344 l 0.436,1.78 c -0.04,0.938 0.266,1.406 1.146,1.079 l 1.898,-0.214 c 0.123,-0.046 0.256,-0.074 0.387,-0.083 8.96,-0.586 15.218,0.822 17.644,3.956 1.403,1.815 0.864,5.162 0.455,6.882 -0.15,0.633 0.187,1.275 0.79,1.516 l 6.554,2.622 c 0.857,0.343 1.78,-0.279 1.802,-1.202 0.086,-3.654 -1.253,-10.467 -4.065,-14.101 -3.566,-4.61 -10.268,-6.894 -19.932,-6.8 -0.582,0.006 -1.106,-0.36 -1.275,-0.918 C 14.066,11.909 9.201,0.001 0,0" /></g><g
           transform="translate(230.6387,591.7709)"
           id="g28"><path
             id="path30"
             style="fill:#2b2b2a;fill-opacity:1;fill-rule:nonzero;stroke:none"
             d="m 0,0 v 0 c 0,0 0,0 0,0 m -66.112,-244.565 v 0 c 0.068,-0.368 0.156,-0.731 0.262,-1.09 l 0.245,-0.827 c 0.056,-0.351 1.824,-8.423 11.839,-11.471 9.665,-2.941 37.694,-0.671 49.475,2.582 2.879,0.795 5.305,2.732 6.708,5.368 1.072,2.014 1.86,3.923 1.86,4.881 0,0.2 0.004,1.049 0.012,2.477 0.682,127.98 -0.667,218.563 -3.464,238.826 -0.32,2.322 -1.386,4.472 -3.028,6.145 -4.357,4.44 -7.274,5.232 -12.672,5.232 -5.812,0 -37.555,-3.513 -53.528,-5.37 l -0.407,-0.047 -0.382,0.045 c -0.282,0.025 -4.323,0.327 -7.374,-2.832 -3.413,-3.533 -4.565,-10.331 -3.333,-19.658 1.441,-10.917 2.775,-44.02 4.319,-82.35 2.106,-52.274 4.612,-128.253 8.993,-140.19 0.206,-0.563 0.365,-1.132 0.475,-1.721 m 27.066,-21.718 c -6.981,0 -13.08,0.513 -16.758,1.633 -11.722,3.568 -15.226,12.894 -16.162,16.51 -0.118,0.458 -0.268,0.902 -0.449,1.339 -4.131,9.935 -6.482,52.598 -10.159,143.865 -1.537,38.159 -2.865,71.115 -4.265,81.715 -1.556,11.777 0.246,20.376 5.355,25.558 4.305,4.368 9.64,4.867 11.945,4.859 0.468,-0.002 0.928,0.015 1.392,0.068 7.155,0.827 46.165,5.294 53.272,5.294 8.959,0 16.113,-2.416 19.339,-9.117 1.096,-2.278 5.824,-6.766 6.742,-118.917 0.301,-36.808 0.497,-80.275 0.25,-126.787 -0.008,-1.407 -0.16,-4.663 -0.179,-4.859 -0.871,-8.894 -4.562,-11.457 -5.476,-12.778 l -0.227,-0.329 -0.296,-0.269 c -5.229,-4.754 -27.372,-7.785 -44.324,-7.785" /></g><g
           transform="translate(338.5421,350.2208)"
           id="g32"><path
             id="path34"
             style="fill:#2b2b2a;fill-opacity:1;fill-rule:nonzero;stroke:none"
             d="m 0,0 c 2.156,-3.039 4.26,-2.908 7.684,-2.698 0.822,0.051 1.673,0.103 2.549,0.103 4.405,0 58.523,-0.194 59.069,-0.196 -0.049,0 4.083,0.147 6.461,2.679 1.267,1.35 1.842,3.191 1.758,5.628 -0.401,11.659 -0.008,222.526 0.008,231.497 l -0.15,10.915 c 0.028,0.198 0.34,3.448 0.162,5.782 -0.215,2.815 -1.014,2.751 -1.375,3.015 -1.645,1.2 -2.285,1.548 -3.21,1.332 l -2.836,0.13 -0.426,-0.006 H 10.515 C 8.416,257.82 -2.384,255.486 -1.258,245.91 -0.629,240.569 -0.793,208.604 -1.113,156.891 -1.48,97.595 -2.034,8.271 0,0 m 69.346,-9.791 c -0.616,0.002 -54.72,0.196 -59.113,0.196 -0.66,0 -1.368,-0.044 -2.118,-0.09 -3.853,-0.239 -9.678,-0.598 -14.142,6.098 -1.035,1.553 -2.209,3.313 -2.42,56.522 -0.121,30.507 0.12,69.551 0.334,104 0.263,42.67 0.513,82.974 -0.096,88.156 -1.595,13.552 11.034,19.043 17.936,20.053 l 0.506,0.037 h 59.091 c 1.613,0.314 8.773,-0.291 11.595,-4.31 2.388,-3.401 3.926,-3.539 3.897,-11.31 C 84.779,239.418 84.698,238.125 84.529,236.772 84.514,228.581 84.126,17.124 84.518,5.756 84.668,1.391 83.42,-2.216 80.81,-4.963 76.453,-9.545 70.061,-9.779 69.346,-9.791" /></g><g
           transform="translate(194.643,399.2546)"
           id="g36"><path
             id="path38"
             style="fill:#2b2b2a;fill-opacity:1;fill-rule:nonzero;stroke:none"
             d="m 0,0 -25.427,61.596 c -0.24,0.582 0,1.252 0.556,1.548 0.597,0.318 1.339,0.093 1.657,-0.504 L 7.993,4.127 C 8.311,3.53 8.085,2.789 7.489,2.47 L 1.708,-0.613 C 1.07,-0.954 0.276,-0.669 0,0" /></g><g
           transform="translate(218.3009,435.5133)"
           id="g40"><path
             id="path42"
             style="fill:#2b2b2a;fill-opacity:1;fill-rule:nonzero;stroke:none"
             d="m 0,0 -44.931,101.996 c -0.376,0.852 -0.016,1.849 0.817,2.266 v 0 c 0.862,0.431 1.911,0.082 2.343,-0.781 L 7.721,4.496 C 8.117,3.705 7.859,2.744 7.121,2.257 L 2.56,-0.753 C 1.658,-1.349 0.436,-0.99 0,0" /></g><g
           transform="translate(377.1169,414.3559)"
           id="g44"><path
             id="path46"
             style="fill:#2b2b2a;fill-opacity:1;fill-rule:nonzero;stroke:none"
             d="m 0,0 -22.764,38.241 c -0.492,0.827 -0.29,1.891 0.47,2.48 0.832,0.643 2.028,0.491 2.671,-0.341 L 6.987,5.997 C 7.573,5.24 7.506,4.166 6.83,3.488 L 2.984,-0.37 C 2.107,-1.25 0.636,-1.068 0,0" /></g><g
           transform="translate(400.8456,455.5613)"
           id="g48"><path
             id="path50"
             style="fill:#2b2b2a;fill-opacity:1;fill-rule:nonzero;stroke:none"
             d="m 0,0 -48.137,81.868 c -0.441,0.75 -0.224,1.714 0.497,2.202 0.754,0.511 1.78,0.314 2.291,-0.441 L 7.812,5.166 C 8.323,4.412 8.126,3.386 7.372,2.875 L 2.348,-0.53 C 1.559,-1.064 0.483,-0.821 0,0" /></g><g
           transform="translate(198.4739,220.5811)"
           id="g52"><path
             id="path54"
             style="fill:#2b2b2a;fill-opacity:1;fill-rule:nonzero;stroke:none"
             d="m 0,0 -4.37,2.636 c -0.757,0.456 -1.001,1.441 -0.098,2.937 l 52.639,87.271 c 0.129,0.215 1.478,0.304 2.175,-0.565 0.402,-0.501 0.465,-1.193 0.161,-1.759 L 2.238,0.614 C 1.805,-0.193 0.784,-0.473 0,0" /></g><g
           transform="translate(385.9196,226.473)"
           id="g56"><path
             id="path58"
             style="fill:#2b2b2a;fill-opacity:1;fill-rule:nonzero;stroke:none"
             d="m 0,0 -62.003,95.48 c -0.282,0.435 -0.214,1.009 0.162,1.366 v 0 c 0.475,0.451 1.238,0.377 1.617,-0.157 L 5.779,3.868 C 6.131,3.373 6.004,2.685 5.498,2.349 l -4,-2.659 C 0.999,-0.641 0.326,-0.502 0,0" /></g></g></g></g></svg>