<svg
      xmlns="http://www.w3.org/2000/svg"
      width="793.701"
      height="1122.52"
      version="1.1"
      viewBox="0 0 793.701 1122.52"
      xmlSpace="preserve"
    >
      <defs>
        <clipPath id="clipPath18" clipPathUnits="userSpaceOnUse">
          <path d="M0 841.89h595.276V0H0z"></path>
        </clipPath>
      </defs>
      <g transform="matrix(1.33333 0 0 -1.33333 0 1122.52)">
        <g>
          <g clipPath="url(#clipPath18)">
            <g transform="translate(221.148 612.17)">
              <path
                fill="#2b2b2a"
                fillOpacity="1"
                fillRule="nonzero"
                stroke="none"
                d="M0 0c-1.73 0-2.819-.172-2.852-.178l-.398-.045C-3.733-.25-51.765-2.952-71.243-6.9-85.05-9.699-85.591-36.474-84.634-46.554l.013-.191c2.402-59.271 9.57-215.814 13.835-228.217 3.372-9.808 12.352-14.718 17.405-16.772a17.362 17.362 0 016.996-1.276c25.247.66 55.502 2.23 64.7 4.655 12.392 3.265 11.573 13.88 11.439 15.08l-.024.412v60.753c-.915 8.512.474 14.859 4.126 18.867 3.651 4.007 8.109 4.044 8.605 4.035l40.927.001c13.49-.083 18.717-11.413 19.119-21.988l-1.761-.12 1.781-.043c.001-.147.08-14.988-1.081-42.776-.64-15.337 5.728-19.714 7.479-20.623h79.092c13.944 0 17.877 10.003 18.546 12.095l-.473 242.097c1.694 33.14-10.772 29.371-12.769 30.062l-51.146-.018c-33.418.497-37.167-10.063-37.509-13.315-.318-3.025-1.333-49.579-2.074-83.57-.503-23.104-.939-43.057-1.145-49.657-.286-9.162-2.121-15.303-5.454-18.252-1.916-1.695-3.723-1.875-4.569-1.857H53.185c-14.642 0-20.289 8.896-21.23 13.599l-.062.491-5.938 106.448c.021 14.829-3.515 25.355-10.51 31.285C10.024-.753 3.614 0 0 0m-46.849-300.016a24.213 24.213 0 00-9.169 1.797c-6.153 2.502-17.114 8.554-21.387 20.982-5.452 15.852-13.801 220.114-14.206 230.117-.258 2.814-3.474 42.529 18.977 47.08 19.569 3.967 65.108 6.587 68.82 6.796C-1.939 7.034 9.969 8.4 19.881.068c8.682-7.299 13.08-19.616 13.074-36.611l5.909-105.83c.375-1.336 2.79-7.799 14.321-7.799h38.039c.475.351 2.894 2.664 3.227 13.328.205 6.567.64 26.504 1.143 49.59 1.031 47.332 1.787 81.074 2.111 84.15.795 7.553 7.666 20.146 44.522 19.583l51.182.018c6.891-2.819 20.156-1.226 19.675-36.753l.006-.196.475-243.123-.102-.415c-1.51-6.146-8.772-17.767-25.446-17.767h-80.379l-.532.174c-.556.183-13.615 4.73-12.654 27.741 1.061 25.387 1.081 39.858 1.076 42.125a5.248 5.248 0 00-.016.256c-.174 4.565-1.703 15.19-12.146 15.254H42.398c-.064-.002-1.917-.077-3.469-1.863-1.503-1.731-3.108-5.472-2.221-13.463l.022-.387v-60.741c.675-6.215-1.93-18.589-16.63-22.464-11.972-3.154-50.355-4.466-66.302-4.883a23.215 23.215 0 00-.647-.008"
              ></path>
            </g>
            <g transform="translate(289.006 248.019)">
              <path
                fill="#2b2b2a"
                fillOpacity="1"
                fillRule="nonzero"
                stroke="none"
                d="M0 0c-.164 0-.328.004-.495.012h-.929c-9.537-.465-14.528 11.779-16.521 18.349a1.31 1.31 0 01-1.276.918c-9.675-.095-16.365 2.19-19.932 6.8-2.74 3.542-3.346 10.103-3.046 13.817.081.998 1.215 1.531 2.045.969l5.759-3.894a1.312 1.312 0 00.48-1.581c-.488-1.212-1.028-3.354.34-5.08 2.452-3.096 8.695-4.48 17.584-3.905.143.01.287.042.42.096l.913-.001c.848.343 2.032.468 2.057-.446l.484-2.256c.002-.087.011-.169.03-.254 1.186-5.322 5.31-16.543 10.204-16.543.059 0 .117.002.177.005l.194.006 1.299-.006c.06-.003.12-.005.179-.005 4.9 0 9.002 11.157 10.192 16.499.026.115.034.226.029.344l.436 1.78c-.04.938.266 1.406 1.146 1.079l1.898-.214c.123-.046.256-.074.387-.083 8.96-.586 15.218.822 17.644 3.956 1.403 1.815.864 5.162.455 6.882-.15.633.187 1.275.79 1.516l6.554 2.622a1.316 1.316 0 001.802-1.202c.086-3.654-1.253-10.467-4.065-14.101-3.566-4.61-10.268-6.894-19.932-6.8a1.308 1.308 0 01-1.275-.918C14.066 11.909 9.201.001 0 0"
              ></path>
            </g>
            <g transform="translate(230.639 591.77)">
              <path
                fill="#2b2b2a"
                fillOpacity="1"
                fillRule="nonzero"
                stroke="none"
                d="M-66.112-244.565c.068-.368.156-.731.262-1.09l.245-.827c.056-.351 1.824-8.423 11.839-11.471 9.665-2.941 37.694-.671 49.475 2.582a10.87 10.87 0 016.708 5.368c1.072 2.014 1.86 3.923 1.86 4.881 0 .2.004 1.049.012 2.477C4.971-114.665 3.622-24.082.825-3.819a10.898 10.898 0 01-3.028 6.145c-4.357 4.44-7.274 5.232-12.672 5.232-5.812 0-37.555-3.513-53.528-5.37l-.407-.047-.382.045c-.282.025-4.323.327-7.374-2.832-3.413-3.533-4.565-10.331-3.333-19.658 1.441-10.917 2.775-44.02 4.319-82.35 2.106-52.274 4.612-128.253 8.993-140.19.206-.563.365-1.132.475-1.721m27.066-21.718c-6.981 0-13.08.513-16.758 1.633-11.722 3.568-15.226 12.894-16.162 16.51-.118.458-.268.902-.449 1.339-4.131 9.935-6.482 52.598-10.159 143.865-1.537 38.159-2.865 71.115-4.265 81.715-1.556 11.777.246 20.376 5.355 25.558 4.305 4.368 9.64 4.867 11.945 4.859.468-.002.928.015 1.392.068 7.155.827 46.165 5.294 53.272 5.294 8.959 0 16.113-2.416 19.339-9.117 1.096-2.278 5.824-6.766 6.742-118.917.301-36.808.497-80.275.25-126.787-.008-1.407-.16-4.663-.179-4.859-.871-8.894-4.562-11.457-5.476-12.778l-.227-.329-.296-.269c-5.229-4.754-27.372-7.785-44.324-7.785"
              ></path>
            </g>
            <g transform="translate(338.542 350.22)">
              <path
                fill="#2b2b2a"
                fillOpacity="1"
                fillRule="nonzero"
                stroke="none"
                d="M0 0c2.156-3.039 4.26-2.908 7.684-2.698.822.051 1.673.103 2.549.103 4.405 0 58.523-.194 59.069-.196-.049 0 4.083.147 6.461 2.679 1.267 1.35 1.842 3.191 1.758 5.628-.401 11.659-.008 222.526.008 231.497l-.15 10.915c.028.198.34 3.448.162 5.782-.215 2.815-1.014 2.751-1.375 3.015-1.645 1.2-2.285 1.548-3.21 1.332l-2.836.13-.426-.006H10.515c-2.099-.361-12.899-2.695-11.773-12.271.629-5.341.465-37.306.145-89.019C-1.48 97.595-2.034 8.271 0 0m69.346-9.791c-.616.002-54.72.196-59.113.196-.66 0-1.368-.044-2.118-.09-3.853-.239-9.678-.598-14.142 6.098-1.035 1.553-2.209 3.313-2.42 56.522-.121 30.507.12 69.551.334 104 .263 42.67.513 82.974-.096 88.156-1.595 13.552 11.034 19.043 17.936 20.053l.506.037h59.091c1.613.314 8.773-.291 11.595-4.31 2.388-3.401 3.926-3.539 3.897-11.31-.037-10.143-.118-11.436-.287-12.789-.015-8.191-.403-219.648-.011-231.016.15-4.365-1.098-7.972-3.708-10.719-4.357-4.582-10.749-4.816-11.464-4.828"
              ></path>
            </g>
            <g transform="translate(194.643 399.255)">
              <path
                fill="#2b2b2a"
                fillOpacity="1"
                fillRule="nonzero"
                stroke="none"
                d="M0 0l-25.427 61.596a1.225 1.225 0 002.213 1.044L7.993 4.127a1.226 1.226 0 00-.504-1.657L1.708-.613A1.224 1.224 0 000 0"
              ></path>
            </g>
            <g transform="translate(218.3 435.513)">
              <path
                fill="#2b2b2a"
                fillOpacity="1"
                fillRule="nonzero"
                stroke="none"
                d="M0 0l-44.931 101.996a1.747 1.747 0 003.16 1.485L7.721 4.496a1.746 1.746 0 00-.6-2.239L2.56-.753A1.746 1.746 0 000 0"
              ></path>
            </g>
            <g transform="translate(377.117 414.356)">
              <path
                fill="#2b2b2a"
                fillOpacity="1"
                fillRule="nonzero"
                stroke="none"
                d="M0 0l-22.764 38.241a1.904 1.904 0 003.141 2.139L6.987 5.997a1.903 1.903 0 00-.157-2.509L2.984-.37A1.903 1.903 0 000 0"
              ></path>
            </g>
            <g transform="translate(400.846 455.561)">
              <path
                fill="#2b2b2a"
                fillOpacity="1"
                fillRule="nonzero"
                stroke="none"
                d="M0 0l-48.137 81.868a1.65 1.65 0 002.788 1.761L7.812 5.166a1.65 1.65 0 00-.44-2.291L2.348-.53A1.65 1.65 0 000 0"
              ></path>
            </g>
            <g transform="translate(198.474 220.581)">
              <path
                fill="#2b2b2a"
                fillOpacity="1"
                fillRule="nonzero"
                stroke="none"
                d="M0 0l-4.37 2.636c-.757.456-1.001 1.441-.098 2.937l52.639 87.271c.129.215 1.478.304 2.175-.565a1.6 1.6 0 00.161-1.759L2.238.614A1.601 1.601 0 000 0"
              ></path>
            </g>
            <g transform="translate(385.92 226.473)">
              <path
                fill="#2b2b2a"
                fillOpacity="1"
                fillRule="nonzero"
                stroke="none"
                d="M0 0l-62.003 95.48a1.075 1.075 0 001.779 1.209L5.779 3.868a1.075 1.075 0 00-.281-1.519l-4-2.659A1.076 1.076 0 000 0"
              ></path>
            </g>
          </g>
        </g>
      </g>
    </svg>